<svg width="80" height="80" viewBox="0 0 80 80" fill="none" xmlns="http://www.w3.org/2000/svg">
<g clip-path="url(#clip0_18_361)">
<path fill-rule="evenodd" clip-rule="evenodd" d="M40 73.5632C58.5365 73.5632 73.5632 58.5365 73.5632 40C73.5632 21.4635 58.5365 6.43678 40 6.43678C21.4635 6.43678 6.43678 21.4635 6.43678 40C6.43678 58.5365 21.4635 73.5632 40 73.5632ZM40 80C62.0914 80 80 62.0914 80 40C80 17.9086 62.0914 0 40 0C17.9086 0 0 17.9086 0 40C0 62.0914 17.9086 80 40 80Z" fill="black"/>
<path fill-rule="evenodd" clip-rule="evenodd" d="M40.1149 14.135C29.3867 14.135 20.6897 22.8319 20.6897 33.5602V57.8167C20.6897 59.5955 22.1316 61.0375 23.9104 61.0375C25.6892 61.0375 27.1312 59.5955 27.1312 57.8167V53.992C27.1312 52.2132 28.5732 50.7712 30.352 50.7712C32.1308 50.7712 33.5727 52.2132 33.5727 53.992V54.294C33.5727 56.1283 35.0598 57.6154 36.8942 57.6154H37.3974C38.9539 57.6154 40.2156 56.3536 40.2156 54.7972C40.2156 53.2408 41.4773 51.979 43.0338 51.979H44.6442C45.7559 51.979 46.6571 52.8803 46.6571 53.992C46.6571 55.1038 47.5584 56.005 48.6701 56.005H50.5825C51.9721 56.005 53.0987 57.1316 53.0987 58.5212C53.0987 59.9109 54.2252 61.0375 55.6149 61.0375H56.3195C58.0982 61.0375 59.5402 59.5955 59.5402 57.8167V33.5602C59.5402 22.8319 50.8432 14.135 40.1149 14.135ZM31.3585 32.0505C31.3585 30.7164 32.44 29.6349 33.774 29.6349C35.1081 29.6349 36.1896 30.7164 36.1896 32.0505V36.2778C36.1896 37.6119 35.1081 38.6933 33.774 38.6933C32.44 38.6933 31.3585 37.6119 31.3585 36.2778V32.0505ZM46.6571 29.6349C45.3231 29.6349 44.2416 30.7164 44.2416 32.0505V36.2778C44.2416 37.6119 45.3231 38.6933 46.6571 38.6933C47.9912 38.6933 49.0727 37.6119 49.0727 36.2778V32.0505C49.0727 30.7164 47.9912 29.6349 46.6571 29.6349Z" fill="black"/>
</g>
<defs>
<clipPath id="clip0_18_361">
<rect width="80" height="80" fill="white"/>
</clipPath>
</defs>
</svg>
